
<svg width="64" height="64" viewBox="0 0 64 64" fill="none" xmlns="http://www.w3.org/2000/svg">
<path d="M32 0C14.327 0 0 14.327 0 32C0 49.673 14.327 64 32 64C49.673 64 64 49.673 64 32C64 14.327 49.673 0 32 0Z" fill="url(#paint0_radial_1_2)"/>
<path d="M32 4C16.536 4 4 16.536 4 32C4 47.464 16.536 60 32 60V4Z" fill="#3b82f6"/>
<path d="M32 60C47.464 60 60 47.464 60 32C60 16.536 47.464 4 32 4V60Z" fill="#10b981"/>
<path d="M32 4C23.273 4 15.636 7.82 10.364 13.091L32 32V4Z" fill="#eab308"/>
<path d="M53.636 10.364C48.364 5.091 40.727 2 32 2V32L53.636 10.364Z" fill="#f97316" opacity="0.5"/>
<defs>
<radialGradient id="paint0_radial_1_2" cx="0" cy="0" r="1" gradientUnits="userSpaceOnUse" gradientTransform="translate(32 32) rotate(90) scale(32)">
<stop stop-color="#22d3ee"/>
<stop offset="1" stop-color="#a855f7"/>
</radialGradient>
</defs>
</svg>
